<svg width="113" height="53" viewBox="0 0 113 53" fill="none" xmlns="http://www.w3.org/2000/svg">
<g clip-path="url(#clip0_1_96)">
<path d="M24.4052 23.6563L16.3597 0.979279H11.8666L3.97472 22.965C2.63061 26.7669 1.99696 27.4582 0 27.823V28.7639H7.69982V27.823C5.06921 27.4198 4.68518 26.5749 5.81807 23.0418L7.06617 19.2591H15.6685L17.0894 23.4835C18.1263 26.6325 17.6462 27.4582 15.2076 27.823V28.7639H28.1111V27.823C26.1717 27.4582 25.4996 26.7285 24.4052 23.6563ZM7.4886 17.915L11.3097 6.2021L15.2268 17.915H7.4886Z" fill="#FD665E"/>
<path d="M35.6012 9.42796L27.1141 10.4648V11.3481L28.0934 11.6553C29.1495 12.0202 29.3223 12.289 29.3223 13.5371V25.7493C29.3223 27.0934 29.0151 27.5158 27.1141 27.823V28.7639H38.0974V27.823C35.9852 27.4774 35.6396 27.0742 35.6396 25.5573V15.4956C36.4845 14.7084 38.4238 14.2091 40.3248 14.2091C41.4193 14.2091 42.533 14.382 43.0898 14.5932C43.3202 14.1323 43.5314 13.3259 43.5314 12.5002C43.5314 10.7721 42.7058 9.38955 40.9776 9.38955C39.0383 9.38955 37.4253 11.0217 35.582 14.8428L35.6012 9.42796Z" fill="#FD665E"/>
<path d="M53.441 29.1479C56.8972 29.1479 59.7775 27.823 61.1984 25.7877V24.8468C60.2383 25.7877 58.5678 26.4213 56.7052 26.4213C52.8841 26.4213 49.7927 23.4067 49.7927 18.1263C49.7927 13.7291 52.0969 10.9257 55.5723 10.9257C56.6092 10.9257 57.5309 11.1753 58.2606 11.6361C58.2222 11.6169 58.2029 11.6169 58.1645 11.6169C56.686 11.6169 55.4763 12.8458 55.4763 14.4012C55.4763 15.9565 56.7244 17.1854 58.299 17.1854C59.8351 17.1854 61.1216 15.9757 61.1216 14.2859C61.1216 11.5209 58.491 9.31275 53.8634 9.31275C47.7573 9.31275 43.2641 13.3835 43.2641 19.2591C43.2641 25.346 47.7765 29.1479 53.441 29.1479Z" fill="#FD665E"/>
<path d="M70.0134 0L61.4879 1.03688V1.92015L62.4672 2.24658C63.5425 2.61141 63.6961 2.88023 63.6961 4.12833V25.7109C63.6961 27.0934 63.3505 27.4966 61.4879 27.823V28.7639H71.9336V27.823C70.2631 27.5158 70.0134 27.1702 70.0134 25.8261V13.7483C70.5895 12.673 71.7992 11.9434 73.3737 11.9434C75.5435 11.9434 76.8108 13.2299 76.8108 15.8029V25.8261C76.8108 27.1702 76.5228 27.535 74.8906 27.823V28.7639H85.3363V27.823C83.4353 27.4966 83.1089 27.0934 83.1089 25.7109V15.438C83.1089 11.2905 80.4783 9.31275 76.5804 9.31275C73.3353 9.31275 70.9735 10.7913 69.975 12.961L70.0134 0Z" fill="#FD665E"/>
<path d="M26.6076 32.518L18.1205 33.5549V34.4382L19.0998 34.7454C20.175 35.1102 20.3287 35.3791 20.3287 36.6272V48.8009C20.3287 50.1835 19.983 50.5867 18.1205 50.9131V51.854H28.5661V50.9131C26.8956 50.6251 26.646 50.2603 26.646 48.9162V36.8384C27.222 35.7823 28.3165 35.0334 29.8718 35.0334C31.888 35.0334 33.0401 36.3007 33.0401 38.8545V48.9162C33.0401 50.2603 32.8097 50.6251 31.1391 50.9131V51.854H41.2775V50.9131C39.607 50.6251 39.3574 50.2603 39.3574 48.9162V38.2017C39.3574 37.6641 39.319 37.2032 39.223 36.7424C39.8182 35.7055 40.9703 35.0334 42.5256 35.0334C44.561 35.0334 45.7515 36.3007 45.7515 38.8545V48.9162C45.7515 50.2603 45.5019 50.6059 43.8313 50.9131V51.854H54.277V50.9131C52.3952 50.5867 52.0688 50.1835 52.0688 48.8009V38.4897C52.0688 34.4382 49.5534 32.4028 45.7323 32.4028C42.5256 32.4028 40.0486 33.939 39.1078 36.1087C38.4165 33.7085 36.1507 32.4028 33.1361 32.4028C29.8718 32.4028 27.5292 33.939 26.6076 36.0895V32.518Z" fill="#FD665E"/>
<path d="M65.4538 52.238C71.6367 52.238 76.2643 48.1289 76.2643 42.234C76.2643 36.2239 71.6751 32.4028 65.5306 32.4028C59.3669 32.4028 54.7394 36.4928 54.7394 42.3876C54.7394 48.4169 59.3285 52.238 65.4538 52.238ZM65.5882 50.9707C63.0152 50.9707 61.4215 47.6681 61.4215 42.1764C61.4215 36.8768 62.804 33.6701 65.4154 33.6701C67.9692 33.6701 69.5629 36.9536 69.5629 42.4452C69.5629 47.7449 68.1804 50.9707 65.5882 50.9707Z" fill="#FD665E"/>
<path d="M78.0516 36.8768L83.812 51.8924H87.2683L92.7599 37.6641C93.9504 34.5726 94.4881 34.035 96.0242 33.7277V32.7677H89.6109V33.7277C91.7807 34.035 92.0303 34.6494 91.1278 37.5104L88.094 46.612L85.0601 37.472C84.1769 34.6494 84.4265 34.0158 86.6539 33.7277V32.7677H75.1137V33.7277C76.6307 34.0542 77.1491 34.5918 78.0516 36.8768Z" fill="#FD665E"/>
<path d="M94.528 42.3492C94.528 48.4553 99.0404 52.238 104.762 52.238C108.334 52.238 111.253 50.9515 112.654 48.8394L112.635 47.8985C111.675 48.8778 110.062 49.5882 108.18 49.5882C104.302 49.5882 101.441 46.7656 100.941 41.7732H112.904C112.942 41.4468 113 40.9475 113 40.4483C113 35.6863 109.812 32.4028 104.494 32.4028C98.5027 32.4028 94.528 36.512 94.528 42.3492ZM100.845 40.1219C100.845 35.9935 102.17 33.6701 104.494 33.6701C106.529 33.6701 107.451 35.8591 107.451 39.277C107.451 39.8338 107.451 40.2371 107.431 40.6019L100.865 40.6787C100.845 40.4867 100.845 40.3139 100.845 40.1219Z" fill="#FD665E"/>
</g>
<defs>
<clipPath id="clip0_1_96">
<rect width="113" height="52.2379" fill="white"/>
</clipPath>
</defs>
</svg>
