<svg width="31" height="32" viewBox="0 0 31 32" fill="none" xmlns="http://www.w3.org/2000/svg">
<rect x="0.9375" y="0.968719" width="30.0626" height="30.0626" rx="15.0313" fill="#F0F0F0"/>
<path d="M22.9578 22.0205L18.3928 17.4554C19.1012 16.5396 19.4844 15.4199 19.4844 14.2422C19.4844 12.8324 18.9342 11.5105 17.9393 10.5138C16.9443 9.51716 15.6189 8.96872 14.2109 8.96872C12.8029 8.96872 11.4775 9.51891 10.4826 10.5138C9.48594 11.5088 8.9375 12.8324 8.9375 14.2422C8.9375 15.6502 9.4877 16.9756 10.4826 17.9705C11.4775 18.9672 12.8012 19.5156 14.2109 19.5156C15.3887 19.5156 16.5066 19.1324 17.4225 18.4258L21.9875 22.989C22.0009 23.0024 22.0168 23.0131 22.0343 23.0203C22.0518 23.0275 22.0705 23.0313 22.0895 23.0313C22.1084 23.0313 22.1271 23.0275 22.1446 23.0203C22.1621 23.0131 22.178 23.0024 22.1914 22.989L22.9578 22.2244C22.9712 22.211 22.9818 22.1951 22.9891 22.1776C22.9963 22.1601 23.0001 22.1414 23.0001 22.1224C23.0001 22.1035 22.9963 22.0847 22.9891 22.0673C22.9818 22.0498 22.9712 22.0339 22.9578 22.0205ZM16.9953 17.0265C16.25 17.7701 15.2621 18.1797 14.2109 18.1797C13.1598 18.1797 12.1719 17.7701 11.4266 17.0265C10.683 16.2812 10.2734 15.2933 10.2734 14.2422C10.2734 13.191 10.683 12.2013 11.4266 11.4578C12.1719 10.7142 13.1598 10.3047 14.2109 10.3047C15.2621 10.3047 16.2518 10.7125 16.9953 11.4578C17.7389 12.2031 18.1484 13.191 18.1484 14.2422C18.1484 15.2933 17.7389 16.283 16.9953 17.0265Z" fill="#585858"/>
</svg>
